<svg width="1920" height="960" viewBox="0 0 1920 960" fill="none" xmlns="http://www.w3.org/2000/svg">
<rect width="1920" height="960" fill="#FF5A5F"/>
<g clip-path="url(#clip0)">
<path d="M1000.49 364.334C1000.49 381.163 986.915 394.72 970.067 394.72C953.22 394.72 939.649 381.163 939.649 364.334C939.649 347.506 952.752 333.949 970.067 333.949C987.383 334.416 1000.49 347.973 1000.49 364.334ZM875.068 425.573C875.068 428.377 875.068 433.052 875.068 433.052C875.068 433.052 860.56 414.353 829.674 414.353C778.664 414.353 738.886 453.153 738.886 506.912C738.886 560.203 778.196 599.47 829.674 599.47C861.028 599.47 875.068 580.304 875.068 580.304V588.251C875.068 591.991 877.876 594.796 881.619 594.796H919.526V419.028C919.526 419.028 884.895 419.028 881.619 419.028C877.876 419.028 875.068 422.3 875.068 425.573ZM875.068 538.232C868.048 548.517 854.009 557.398 837.161 557.398C807.211 557.398 784.28 538.7 784.28 506.912C784.28 475.124 807.211 456.425 837.161 456.425C853.541 456.425 868.516 465.775 875.068 475.592V538.232ZM947.604 419.028H992.53V594.796H947.604V419.028ZM1618.69 414.353C1587.8 414.353 1573.29 433.052 1573.29 433.052V334.416H1528.37V594.796C1528.37 594.796 1563 594.796 1566.27 594.796C1570.02 594.796 1572.82 591.523 1572.82 588.251V580.304C1572.82 580.304 1587.33 599.47 1618.22 599.47C1669.23 599.47 1709.01 560.203 1709.01 506.912C1709.01 453.621 1669.23 414.353 1618.69 414.353ZM1611.2 556.931C1593.88 556.931 1580.31 548.049 1573.29 537.765V475.124C1580.31 465.775 1595.29 455.958 1611.2 455.958C1641.15 455.958 1664.08 474.657 1664.08 506.444C1664.08 538.232 1641.15 556.931 1611.2 556.931ZM1504.97 490.551V595.263H1460.04V495.693C1460.04 466.71 1450.68 455.023 1425.41 455.023C1411.84 455.023 1397.8 462.035 1388.91 472.319V594.796H1343.98V419.028H1379.55C1383.29 419.028 1386.1 422.3 1386.1 425.573V433.052C1399.2 419.495 1416.52 414.353 1433.83 414.353C1453.49 414.353 1469.87 419.963 1482.97 431.182C1498.88 444.271 1504.97 461.1 1504.97 490.551ZM1234.94 414.353C1204.06 414.353 1189.55 433.052 1189.55 433.052V334.416H1144.62V594.796C1144.62 594.796 1179.25 594.796 1182.53 594.796C1186.27 594.796 1189.08 591.523 1189.08 588.251V580.304C1189.08 580.304 1203.59 599.47 1234.48 599.47C1285.48 599.47 1325.26 560.203 1325.26 506.912C1325.73 453.621 1285.95 414.353 1234.94 414.353ZM1227.46 556.931C1210.14 556.931 1196.57 548.049 1189.55 537.765V475.124C1196.57 465.775 1211.54 455.958 1227.46 455.958C1257.41 455.958 1280.34 474.657 1280.34 506.444C1280.34 538.232 1257.41 556.931 1227.46 556.931ZM1105.78 414.353C1119.35 414.353 1126.37 416.691 1126.37 416.691V458.295C1126.37 458.295 1088.93 445.674 1065.54 472.319V595.263H1020.61V419.028C1020.61 419.028 1055.24 419.028 1058.52 419.028C1062.26 419.028 1065.07 422.3 1065.07 425.573V433.052C1073.49 423.235 1091.74 414.353 1105.78 414.353ZM639.206 578.902C636.866 573.292 634.527 567.215 632.187 562.073C628.443 553.659 624.699 545.712 621.423 538.232L620.955 537.765C588.665 467.645 554.034 396.59 517.532 326.469L516.128 323.665C512.384 316.653 508.64 309.173 504.896 301.694C500.217 293.279 495.537 284.397 488.049 275.983C473.074 257.284 451.547 247 428.616 247C405.217 247 384.158 257.284 368.715 275.048C361.695 283.462 356.547 292.344 351.867 300.759C348.124 308.238 344.38 315.718 340.636 322.73L339.232 325.535C303.198 395.655 268.099 466.71 235.809 536.83L235.341 537.765C232.065 545.244 228.321 553.191 224.577 561.606C222.237 566.748 219.897 572.357 217.557 578.434C211.474 595.731 209.602 612.092 211.942 628.921C217.09 663.981 240.488 693.431 272.779 706.521C284.946 711.663 297.582 714 310.685 714C314.429 714 319.109 713.533 322.853 713.065C338.296 711.195 354.207 706.053 369.651 697.171C388.838 686.419 407.089 670.993 427.68 648.555C448.271 670.993 466.99 686.419 485.709 697.171C501.153 706.053 517.064 711.195 532.507 713.065C536.251 713.533 540.931 714 544.675 714C557.778 714 570.881 711.663 582.581 706.521C615.339 693.431 638.27 663.513 643.418 628.921C647.162 612.56 645.29 596.198 639.206 578.902ZM428.148 603.21C402.877 571.422 386.498 541.504 380.882 516.261C378.542 505.509 378.074 496.16 379.478 487.746C380.414 480.266 383.222 473.722 386.966 468.112C395.857 455.49 410.833 447.544 428.148 447.544C445.463 447.544 460.906 455.023 469.33 468.112C473.074 473.722 475.882 480.266 476.818 487.746C478.222 496.16 477.754 505.977 475.414 516.261C469.798 541.037 453.419 570.955 428.148 603.21ZM614.871 625.181C611.596 649.489 595.216 670.526 572.285 679.875C561.054 684.55 548.886 685.952 536.719 684.55C525.02 683.147 513.32 679.407 501.153 672.395C484.305 663.046 467.458 648.555 447.803 627.051C478.69 589.186 497.409 554.594 504.428 523.741C507.704 509.249 508.172 496.16 506.768 484.006C504.896 472.319 500.685 461.568 494.133 452.218C479.626 431.182 455.291 419.028 428.148 419.028C401.005 419.028 376.67 431.65 362.163 452.218C355.611 461.568 351.399 472.319 349.528 484.006C347.656 496.16 348.124 509.717 351.867 523.741C358.887 554.594 378.074 589.654 408.493 627.519C389.306 649.022 371.99 663.513 355.143 672.863C342.976 679.875 331.276 683.615 319.577 685.017C306.941 686.419 294.774 684.55 284.01 680.342C261.08 670.993 244.7 649.957 241.424 625.649C240.02 613.962 240.956 602.275 245.636 589.186C247.04 584.511 249.38 579.837 251.72 574.227C254.996 566.748 258.74 558.801 262.483 550.854L262.951 549.919C295.242 480.266 329.872 409.211 365.907 340.026L367.311 337.221C371.055 330.209 374.798 322.73 378.542 315.718C382.286 308.238 386.498 301.226 391.646 295.149C401.473 283.93 414.577 277.853 429.084 277.853C443.591 277.853 456.695 283.93 466.522 295.149C471.67 301.226 475.882 308.238 479.626 315.718C483.369 322.73 487.113 330.209 490.857 337.221L492.261 340.026C527.827 409.679 562.458 480.734 594.748 550.386V550.854C598.492 558.333 601.768 566.748 605.512 574.227C607.852 579.837 610.192 584.511 611.596 589.186C615.339 601.34 616.743 613.027 614.871 625.181Z" fill="white"/>
</g>
<defs>
<clipPath id="clip0">
<rect width="1498" height="467" fill="white" transform="translate(211 247)"/>
</clipPath>
</defs>
</svg>
